<?xml version="1.0" standalone="no"?><!DOCTYPE svg PUBLIC "-//W3C//DTD SVG 1.1//EN" "http://www.w3.org/Graphics/SVG/1.1/DTD/svg11.dtd"><svg t="1572522862509" class="icon" viewBox="0 0 1024 1024" version="1.1" xmlns="http://www.w3.org/2000/svg" p-id="9793" xmlns:xlink="http://www.w3.org/1999/xlink" width="200" height="200"><defs><style type="text/css"></style></defs><path d="M890.065 863.043H130.021c-54.749 0-99.145-44.387-99.145-99.136v-429.58c0-54.763 44.396-99.152 99.145-99.152h49.561v-0.839c2.747 0.321 5.433 0.839 8.263 0.839 38.238 0 69.352-28.977 73.517-66.086h0.832c0-36.499 29.602-66.085 66.102-66.085h363.498c36.5 0 66.102 29.587 66.102 66.085h0.839c4.15 37.109 35.279 66.086 73.518 66.086 2.823 0 5.509-0.519 8.255-0.839v0.839h49.561c54.765 0 99.138 44.389 99.138 99.152v429.581c-0.004 54.748-44.377 99.135-99.142 99.135zM510.043 284.735c-136.88 0-247.85 110.978-247.85 247.849 0 11.23 1.007 22.201 2.464 33.051h83.481a164.727 164.727 0 0 1-3.326-33.051c0-91.263 73.982-165.222 165.23-165.222v66.101h227.077c-38.263-87.51-125.467-148.728-227.076-148.728zM755.43 499.549h-83.481a164.924 164.924 0 0 1 3.325 33.035c0 91.278-73.982 165.237-165.23 165.237V631.72H282.96c38.261 87.524 125.481 148.712 227.083 148.712 136.88 0 247.851-110.945 247.851-247.848 0-11.23-1.007-22.202-2.464-33.035z" p-id="9794" fill="#31927B"></path></svg>