<?xml version="1.0" standalone="no"?><!DOCTYPE svg PUBLIC "-//W3C//DTD SVG 1.1//EN" "http://www.w3.org/Graphics/SVG/1.1/DTD/svg11.dtd"><svg t="1572521521732" class="icon" viewBox="0 0 1024 1024" version="1.1" xmlns="http://www.w3.org/2000/svg" p-id="3282" xmlns:xlink="http://www.w3.org/1999/xlink" width="200" height="200"><defs><style type="text/css"></style></defs><path d="M814.25 118.25H209.75c-12.75 0-22.50000001-10.50000001-22.5-22.5 0-12.75 10.50000001-22.50000001 22.5-22.5h604.5c12.75 0 22.50000001 10.50000001 22.5 22.5 0.75 12-9.75 22.50000001-22.5 22.5zM844.25 962.75H180.49999999c-13.50000001 0-24.75-11.25-24.74999999-24.75 0-13.50000001 11.25-24.75 24.75000001-24.75h663.74999999c13.50000001 0 24.75 11.25 24.75 24.75 0 13.50000001-11.25 24.75-24.75 24.75z" fill="#cdcdcd" p-id="3283"></path><path d="M750.50000001 656.75l-0.75000001-1.5c-38.25-66.75-89.25-110.25-143.25000001-136.5 54-27 104.25-69.75 143.25000001-136.5l0.74999999-1.5c38.25-66 63.75-156 68.25000001-276H774.50000001c-3.75 111-27 193.50000001-62.25000001 254.25l-0.75000001 0.75C668 437 619.25 478.25 556.25 497.75l-3 0.74999999h-0.74999999c-1.50000001 0.75-2.25 1.50000001-3.75000001 2.25000001l-0.75 0.74999999-1.49999999 1.50000001-1.50000001 1.49999999v0.75000001c-0.75 0.75-1.50000001 2.25-2.25 3.75l-0.75 0.75-1.49999999 5.25v8.25l1.49999999 5.25000001 0.75 0.74999999c0.75 1.50000001 1.50000001 2.25 2.25 3.75v0.75l1.50000001 1.5V534.50000001l1.49999999 0.74999999 0.75 0.75c0.75 0.75 2.25 1.50000001 3.75000001 2.25h0.74999999l3 1.5c63.75 20.25 111.75 60.75 156 137.25l0.75 1.50000001c18.75 31.50000001 33 69.75 44.25 113.99999998 2.25 12.75 10.50000001 40.50000001 12 76.50000001-35.25-31.50000001-132.75-54-249.74999999-55.50000001V467c1.50000001 0 2.25-0.75 3.74999999-1.50000001v-0.74999999l6-2.24999999h1.5c42.75-13.50000001 76.50000001-34.50000001 105-62.25000001 30-30 53.25-66.75 69-108 4.50000001-11.25-0.75-24-12.75-28.5-11.25-4.50000001-24 0.75-28.50000001 12v0.75000001c-13.50000001 34.50000001-33 66.75-58.49999999 92.24999999-23.25 22.50000001-51 40.50000001-86.25 51l-0.75 0.74999999-2.25 0.75000001-3.75 0.75-2.25-0.75-1.5-0.75000001-2.25-0.74999999c-34.50000001-11.25-63.75-28.50000001-86.25-51-26.25-25.50000001-45-57-58.5-92.25000001-4.50000001-11.25-17.25-17.25-27.75000001-12.74999999-11.25 4.50000001-16.50000001 16.50000001-12.74999999 28.5 15.75 41.25 38.25 78 69 108 27.75 27.75 62.25 48.75 104.25 62.25000001h0.75l6 2.24999999 1.5 0.75000001c0.75 0.75 1.50000001 0.75 3 1.49999999v346.50000001c-109.50000001 0-204.75 18.75-249.74999999 44.99999998 1.50000001-18 5.25-37.50000001 11.99999998-66 11.25-45 26.25-82.50000001 44.25000001-113.99999998l0.74999999-1.50000001c44.25-76.50000001 92.25-117 156.75000001-137.25l2.25000001-1.5h0.74999999c1.50000001-0.75 2.25-1.50000001 3.75-2.25l0.75-0.75 1.5-0.74999999v-0.75000001l1.5-1.5v-0.74999999c0.75-0.75 1.50000001-2.25 2.25-3.75000001V527c0.75-1.50000001 1.50000001-3.75 1.50000001-5.25v-7.5c0-1.50000001-0.75-3.75-1.50000001-5.25v-0.75c-0.75-1.50000001-1.50000001-3-2.25-3.74999999v-0.75000001l-1.5-1.5-1.5-1.5-2.24999999 0.75000001c-1.50000001-0.75-2.25-1.50000001-3.75000001-2.25000001h-0.75l-2.25-0.75000001c-63.75-19.50000001-112.50000001-60.75-156.75-137.99999998l-0.75-0.75000001c-34.50000001-60.75-57.75-143.25-62.25-254.25000001h-44.25c4.50000001 120 30 209.25 68.25 276.00000002l0.75 1.49999999C311 449.75 362 492.49999999 416 519.50000001c-54 26.25-104.25 69.75-143.25 136.49999999l-0.75 1.50000001c-36 63-61.50000001 147-66.75 258.74999999h612c-5.25-112.50000001-30-196.50000001-66.75000001-259.5z" fill="#AF5F5B" p-id="3284"></path></svg>